<?xml version="1.0" standalone="no"?>
<!DOCTYPE svg PUBLIC "-//W3C//DTD SVG 20010904//EN"
 "http://www.w3.org/TR/2001/REC-SVG-20010904/DTD/svg10.dtd">
<svg version="1.0" xmlns="http://www.w3.org/2000/svg"
 width="1366.000000pt" height="1366.000000pt" viewBox="0 0 1366.000000 1366.000000"
 preserveAspectRatio="xMidYMid meet">
<metadata>
Created by potrace 1.11, written by Peter Selinger 2001-2013
</metadata>
<g transform="translate(0.000000,1366.000000) scale(0.100000,-0.100000)"
fill="#000000" stroke="none">
<path d="M7170 8141 c-99 -32 -160 -95 -180 -184 -21 -93 17 -178 104 -232 46
-28 56 -30 146 -30 90 0 100 2 146 30 27 17 62 51 79 75 27 41 30 52 30 127 0
74 -3 85 -30 124 -42 60 -110 93 -200 96 -38 1 -81 -1 -95 -6z"/>
<path d="M1260 7474 c-89 -28 -188 -124 -263 -254 -39 -68 -43 -55 -23 89 9
62 16 118 16 127 0 12 -31 14 -222 12 l-223 -3 -7 -63 c-13 -120 -79 -459
-178 -912 -11 -52 -36 -168 -55 -257 -19 -90 -37 -174 -41 -188 l-6 -25 228 2
228 3 7 35 c4 19 15 69 24 110 8 41 36 172 61 290 68 327 109 433 204 531 85
86 125 104 240 104 69 0 104 -5 127 -17 18 -9 35 -13 37 -9 5 8 75 338 83 392
5 35 4 36 -33 42 -63 11 -156 7 -204 -9z"/>
<path d="M2010 7476 c-160 -34 -298 -112 -420 -236 -174 -176 -262 -400 -263
-665 0 -142 18 -227 72 -330 64 -123 181 -214 336 -262 92 -28 348 -25 470 5
74 18 239 76 254 88 3 3 71 312 71 326 0 4 -33 -8 -72 -26 -108 -50 -188 -75
-296 -93 -233 -39 -383 47 -394 227 l-3 45 146 12 c265 21 406 49 537 109 131
60 214 141 254 250 29 80 30 227 2 296 -46 112 -135 192 -267 238 -80 28 -325
37 -427 16z m257 -330 c33 -36 35 -42 31 -92 -11 -132 -168 -213 -417 -214
l-83 0 6 31 c9 46 61 149 96 192 37 43 109 95 160 114 20 8 64 12 104 10 65
-3 70 -5 103 -41z"/>
<path d="M3235 7484 c-106 -17 -249 -80 -317 -142 -120 -108 -177 -301 -132
-452 20 -66 50 -113 105 -166 57 -53 84 -71 194 -129 109 -57 151 -87 176
-129 38 -62 15 -137 -54 -177 -37 -21 -54 -24 -147 -23 -118 0 -228 25 -338
75 -36 16 -66 28 -68 27 -3 -4 -64 -313 -64 -326 0 -11 72 -34 180 -59 55 -12
125 -17 265 -17 210 -1 280 12 412 75 200 95 303 312 248 522 -28 109 -102
189 -244 267 -194 106 -241 148 -241 215 0 86 77 145 190 145 74 0 192 -28
277 -65 31 -14 59 -23 62 -20 10 10 69 320 63 326 -4 4 -50 17 -102 29 -75 18
-132 23 -265 25 -93 2 -183 1 -200 -1z"/>
<path d="M4505 7484 c-49 -8 -136 -34 -199 -61 -335 -140 -546 -507 -523 -908
16 -270 148 -449 390 -526 63 -21 93 -23 232 -24 119 0 179 5 235 18 96 23
195 55 241 78 35 17 37 22 54 106 10 48 24 113 31 143 8 30 14 65 14 77 0 23
0 23 -67 -10 -188 -94 -405 -127 -534 -82 -92 33 -159 123 -159 216 l0 46 108
7 c323 21 513 66 657 157 79 50 119 95 159 179 29 60 31 73 31 175 0 98 -3
116 -26 166 -50 106 -126 171 -253 217 -62 22 -90 25 -216 28 -80 1 -158 0
-175 -2z m202 -320 c68 -51 64 -146 -11 -220 -68 -67 -195 -104 -363 -104 -46
0 -83 2 -83 3 0 2 9 29 19 59 40 116 121 213 216 260 52 25 69 29 127 26 49
-3 75 -9 95 -24z"/>
<path d="M6115 7479 c-84 -21 -187 -82 -260 -154 -40 -38 -79 -81 -89 -95 -19
-28 -19 -36 0 153 l7 67 -220 0 -219 0 -13 -107 c-21 -180 -48 -328 -118 -648
-8 -38 -23 -108 -33 -155 -10 -47 -37 -173 -59 -280 -45 -208 -73 -341 -96
-455 -24 -115 -94 -437 -101 -457 -5 -17 7 -18 223 -18 l229 0 48 223 c75 342
91 411 99 424 5 9 16 9 45 0 21 -7 105 -12 197 -12 179 0 251 15 391 79 265
123 441 367 505 701 50 264 2 503 -128 633 -78 78 -143 105 -268 108 -55 2
-118 -1 -140 -7z m6 -352 c66 -35 92 -94 97 -216 8 -187 -65 -388 -182 -505
-109 -110 -222 -148 -373 -125 -46 7 -86 16 -89 20 -8 13 83 411 113 492 54
150 121 254 199 308 81 55 162 64 235 26z"/>
<path d="M8201 7479 c-347 -62 -625 -316 -719 -659 -82 -297 -43 -585 99 -735
76 -81 156 -117 274 -123 104 -5 177 11 260 58 49 28 170 144 193 185 21 38
22 8 2 -81 -38 -173 -81 -271 -154 -351 -99 -109 -173 -138 -346 -138 -146 1
-199 14 -333 82 -48 25 -89 44 -91 42 -6 -8 -76 -322 -76 -343 0 -17 125 -66
235 -92 63 -15 117 -19 260 -18 160 0 192 3 285 27 272 69 460 225 568 472 57
131 90 248 146 520 19 94 53 258 76 365 22 107 47 227 55 265 8 39 23 111 34
160 48 224 62 298 57 302 -3 3 -81 18 -173 34 -139 25 -205 30 -383 34 -118 2
-239 0 -269 -6z m319 -316 c8 -8 -60 -334 -95 -459 -29 -100 -109 -255 -160
-307 -99 -103 -226 -126 -303 -54 -55 50 -67 93 -66 222 0 139 23 238 80 345
66 126 154 206 273 248 57 20 80 22 165 18 54 -2 102 -8 106 -13z"/>
<path d="M10076 7479 c-109 -27 -251 -116 -355 -223 -40 -42 -75 -75 -78 -73
-2 2 3 50 12 105 8 56 15 115 15 132 l0 30 -219 0 -219 0 -7 -52 c-3 -29 -10
-75 -16 -103 -37 -201 -71 -374 -89 -455 -11 -52 -36 -167 -55 -255 -29 -134
-99 -457 -121 -558 l-7 -27 229 2 228 3 8 30 c4 17 41 192 83 390 67 324 79
368 116 444 51 104 158 217 240 256 131 61 239 5 239 -125 0 -22 -16 -120 -36
-218 -33 -164 -147 -708 -159 -759 l-5 -23 224 0 c205 0 225 1 230 18 2 9 14
64 26 122 12 58 32 155 45 215 99 450 145 696 145 769 0 57 -24 155 -50 207
-26 51 -73 95 -134 126 -43 22 -67 27 -151 29 -55 2 -117 -1 -139 -7z"/>
<path d="M11288 7480 c-111 -20 -250 -81 -347 -153 -213 -157 -343 -416 -357
-707 -16 -334 125 -554 406 -636 53 -16 95 -19 230 -18 143 1 178 4 260 27
107 28 198 61 223 80 11 8 27 59 47 157 40 194 42 185 -29 149 -88 -44 -195
-78 -301 -95 -151 -25 -259 -2 -329 68 -42 42 -71 112 -71 173 l0 32 113 7
c546 34 794 164 842 441 13 75 12 92 -7 179 -27 125 -121 220 -272 274 -61 22
-91 25 -216 28 -80 2 -166 -1 -192 -6z m202 -308 c21 -10 42 -32 53 -55 57
-114 -62 -234 -265 -267 -58 -9 -228 -14 -228 -7 0 2 8 26 17 53 47 137 152
251 263 285 46 14 124 10 160 -9z"/>
<path d="M6926 7433 c-17 -57 -187 -887 -201 -983 -37 -251 12 -388 165 -459
50 -23 67 -25 185 -26 117 0 243 15 273 33 6 4 26 79 45 166 l34 158 -31 -7
c-119 -25 -191 -11 -215 41 -20 44 -27 5 144 819 31 143 55 263 55 268 0 4
-101 7 -224 7 -205 0 -225 -2 -230 -17z"/>
<path d="M12004 7418 c3 -18 15 -103 26 -188 10 -85 38 -294 60 -465 22 -170
49 -377 60 -460 11 -82 24 -181 29 -220 6 -38 11 -73 11 -77 0 -5 112 -8 249
-8 l250 0 34 58 c19 31 77 131 129 222 52 91 144 251 205 355 60 105 170 294
243 420 73 127 154 267 181 313 l49 82 -248 0 -248 0 -46 -97 c-26 -54 -92
-192 -148 -308 -167 -346 -200 -414 -257 -545 -30 -69 -58 -128 -62 -132 -4
-5 -8 47 -9 115 -1 67 -7 178 -12 247 -13 161 -39 508 -47 628 l-6 92 -225 0
-224 0 6 -32z"/>
</g>
</svg>
